<svg xmlns="http://www.w3.org/2000/svg" viewBox="0 0 64 64" role="img" aria-label="Personal knowledge archive">
  <rect width="64" height="64" rx="14" fill="#f6f8f2"/>
  <path d="M16 17c7 0 12 2 16 6v26c-4-4-9-6-16-6V17Z" fill="#526f5a"/>
  <path d="M48 17c-7 0-12 2-16 6v26c4-4 9-6 16-6V17Z" fill="#4b6771"/>
  <path d="M21 25c4 .3 7 1.4 9 3.2M21 33c4 .3 7 1.4 9 3.2M43 25c-4 .3-7 1.4-9 3.2M43 33c-4 .3-7 1.4-9 3.2" fill="none" stroke="#f6f8f2" stroke-width="2.4" stroke-linecap="round"/>
  <path d="M39 12c-5 1-8 4-9 9 6-.1 10-3 12-9h-3Z" fill="#9a5b3d"/>
</svg>
